<svg xmlns="http://www.w3.org/2000/svg" width="1112.0" height="1038.5" viewBox="-80.0 -80.0 1112.0 1038.5"><style>svg {
    stroke:#000;
    fill:none;
  }
  text {
    fill:#000;
    stroke:none;
    font-size:10px;
    font-weight: bold;
    font-family: "Courier New", monospace;
  }
  .nodelabel {
    text-anchor: middle;
  }
  .inputPortLabel {
    text-anchor: end;
  }
  .splitjoinBody {
    fill:#000;
  }
.netlabel { font-family: sans-serif; font-size: 8px; fill: #1565c0; }
a:hover rect { fill: #e3f2fd; }
a { cursor: pointer; }
</style>
<rect x="-80.0" y="-80.0" width="1112.0" height="1038.5" fill="#ffffff" /><g transform="translate(511.6666666666667,527)" id="cell_$and$PAL_44303B.v:107$9623"><path d="M0,0 L0,25 L15,25 A15 12.5 0 0 0 15,0 Z" class="cell_$and$PAL_44303B.v:107$9623" /><g /><g /><g /></g>
<g transform="translate(626,534.5)" id="cell_$and$PAL_44303B.v:107$9624"><path d="M0,0 L0,25 L15,25 A15 12.5 0 0 0 15,0 Z" class="cell_$and$PAL_44303B.v:107$9624" /><g /><g /><g /></g>
<g transform="translate(154,836.5)" id="cell_$and$PAL_44303B.v:77$9609"><path d="M0,0 L0,25 L15,25 A15 12.5 0 0 0 15,0 Z" class="cell_$and$PAL_44303B.v:77$9609" /><g /><g /><g /></g>
<g transform="translate(232,87)" id="cell_$and$PAL_44303B.v:80$9611"><path d="M0,0 L0,25 L15,25 A15 12.5 0 0 0 15,0 Z" class="cell_$and$PAL_44303B.v:80$9611" /><g /><g /><g /></g>
<g transform="translate(362.6666666666667,639.5)" id="cell_$and$PAL_44303B.v:93$9614"><path d="M0,0 L0,25 L15,25 A15 12.5 0 0 0 15,0 Z" class="cell_$and$PAL_44303B.v:93$9614" /><g /><g /><g /></g>
<g transform="translate(511.6666666666667,647)" id="cell_$and$PAL_44303B.v:93$9615"><path d="M0,0 L0,25 L15,25 A15 12.5 0 0 0 15,0 Z" class="cell_$and$PAL_44303B.v:93$9615" /><g /><g /><g /></g>
<g transform="translate(761,364.5)" id="cell_$not$PAL_44303B.v:105$9626"><path d="M0,0 L0,20 L20,10 Z" class="cell_$not$PAL_44303B.v:105$9626" /><circle cx="23" cy="10" r="3" class="cell_$not$PAL_44303B.v:105$9626" /><g /><g /></g>
<g transform="translate(761,168)" id="cell_$not$PAL_44303B.v:111$9628"><path d="M0,0 L0,20 L20,10 Z" class="cell_$not$PAL_44303B.v:111$9628" /><circle cx="23" cy="10" r="3" class="cell_$not$PAL_44303B.v:111$9628" /><g /><g /></g>
<g transform="translate(86,846.5)" id="cell_$not$PAL_44303B.v:50$9602"><path d="M0,0 L0,20 L20,10 Z" class="cell_$not$PAL_44303B.v:50$9602" /><circle cx="23" cy="10" r="3" class="cell_$not$PAL_44303B.v:50$9602" /><g /><g /></g>
<g transform="translate(154,97)" id="cell_$not$PAL_44303B.v:51$9603"><path d="M0,0 L0,20 L20,10 Z" class="cell_$not$PAL_44303B.v:51$9603" /><circle cx="23" cy="10" r="3" class="cell_$not$PAL_44303B.v:51$9603" /><g /><g /></g>
<g transform="translate(367.5,761.5)" id="cell_$not$PAL_44303B.v:52$9604"><path d="M0,0 L0,20 L20,10 Z" class="cell_$not$PAL_44303B.v:52$9604" /><circle cx="23" cy="10" r="3" class="cell_$not$PAL_44303B.v:52$9604" /><g /><g /></g>
<g transform="translate(236,634.5)" id="cell_$not$PAL_44303B.v:53$9605"><path d="M0,0 L0,20 L20,10 Z" class="cell_$not$PAL_44303B.v:53$9605" /><circle cx="23" cy="10" r="3" class="cell_$not$PAL_44303B.v:53$9605" /><g /><g /></g>
<g transform="translate(626,737.5)" id="cell_$not$PAL_44303B.v:54$9606"><path d="M0,0 L0,20 L20,10 Z" class="cell_$not$PAL_44303B.v:54$9606" /><circle cx="23" cy="10" r="3" class="cell_$not$PAL_44303B.v:54$9606" /><g /><g /></g>
<g transform="translate(761,484.5)" id="cell_$not$PAL_44303B.v:91$9618"><path d="M0,0 L0,20 L20,10 Z" class="cell_$not$PAL_44303B.v:91$9618" /><circle cx="23" cy="10" r="3" class="cell_$not$PAL_44303B.v:91$9618" /><g /><g /></g>
<g transform="translate(761,309.5)" id="cell_$not$PAL_44303B.v:98$9620"><path d="M0,0 L0,20 L20,10 Z" class="cell_$not$PAL_44303B.v:98$9620" /><circle cx="23" cy="10" r="3" class="cell_$not$PAL_44303B.v:98$9620" /><g /><g /></g>
<g transform="translate(626,284.5)" id="cell_$or$PAL_44303B.v:105$9622"><path d="M0,25 L0,25 L15,25 A15 12.5 0 0 0 15,0 L0,0" class="cell_$or$PAL_44303B.v:105$9622" /><path d="M0,0 A30 25 0 0 1 0,25" class="cell_$or$PAL_44303B.v:105$9622" /><g /><g /><g /></g>
<g transform="translate(696,362)" id="cell_$or$PAL_44303B.v:105$9625"><path d="M0,25 L0,25 L15,25 A15 12.5 0 0 0 15,0 L0,0" class="cell_$or$PAL_44303B.v:105$9625" /><path d="M0,0 A30 25 0 0 1 0,25" class="cell_$or$PAL_44303B.v:105$9625" /><g /><g /><g /></g>
<g transform="translate(511.6666666666667,587)" id="cell_$or$PAL_44303B.v:91$9613"><path d="M0,25 L0,25 L15,25 A15 12.5 0 0 0 15,0 L0,0" class="cell_$or$PAL_44303B.v:91$9613" /><path d="M0,0 A30 25 0 0 1 0,25" class="cell_$or$PAL_44303B.v:91$9613" /><g /><g /><g /></g>
<g transform="translate(626,474.5)" id="cell_$or$PAL_44303B.v:91$9616"><path d="M0,25 L0,25 L15,25 A15 12.5 0 0 0 15,0 L0,0" class="cell_$or$PAL_44303B.v:91$9616" /><path d="M0,0 A30 25 0 0 1 0,25" class="cell_$or$PAL_44303B.v:91$9616" /><g /><g /><g /></g>
<g transform="translate(696,482)" id="cell_$or$PAL_44303B.v:91$9617"><path d="M0,25 L0,25 L15,25 A15 12.5 0 0 0 15,0 L0,0" class="cell_$or$PAL_44303B.v:91$9617" /><path d="M0,0 A30 25 0 0 1 0,25" class="cell_$or$PAL_44303B.v:91$9617" /><g /><g /><g /></g>
<g transform="translate(353,279)" id="cell_$procdff$37284"><text x="15" y="-4" class="nodelabel cell_$procdff$37284">$adff</text><rect width="30" height="60" class="cell_$procdff$37284" /><g transform="translate(0,10)" id="port_$procdff$37284~ARST"><text x="-3" y="-4" class="inputPortLabel cell_$procdff$37284">ARST</text></g><g transform="translate(0,30)" id="port_$procdff$37284~CLK"><text x="-3" y="-4" class="inputPortLabel cell_$procdff$37284">CLK</text></g><g transform="translate(0,50)" id="port_$procdff$37284~D"><text x="-3" y="-4" class="inputPortLabel cell_$procdff$37284">D</text></g><g transform="translate(30,10)" id="port_$procdff$37284~Q"><text x="5" y="-4" style="fill:#000; stroke:none" class="cell_$procdff$37284">Q</text></g></g>
<g transform="translate(502,167.5)" id="cell_$procdff$37289"><text x="15" y="-4" class="nodelabel cell_$procdff$37289">$adff</text><rect width="30" height="60" class="cell_$procdff$37289" /><g transform="translate(0,10)" id="port_$procdff$37289~ARST"><text x="-3" y="-4" class="inputPortLabel cell_$procdff$37289">ARST</text></g><g transform="translate(0,30)" id="port_$procdff$37289~CLK"><text x="-3" y="-4" class="inputPortLabel cell_$procdff$37289">CLK</text></g><g transform="translate(0,50)" id="port_$procdff$37289~D"><text x="-3" y="-4" class="inputPortLabel cell_$procdff$37289">D</text></g><g transform="translate(30,10)" id="port_$procdff$37289~Q"><text x="5" y="-4" style="fill:#000; stroke:none" class="cell_$procdff$37289">Q</text></g></g>
<g transform="translate(238.66666666666666,12)" id="cell_$procmux$11239"><path d="M0,0 L20,10 L20,30 L0,40 Z" class="cell_$procmux$11239" /><g /><g /><g /><g /></g>
<g transform="translate(366,198)" id="cell_$procmux$11242"><path d="M0,0 L20,10 L20,30 L0,40 Z" class="cell_$procmux$11242" /><g /><g /><g /><g /></g>
<g transform="translate(160.66666666666666,138)" id="cell_$procmux$11244"><path d="M0,0 L20,10 L20,30 L0,40 Z" class="cell_$procmux$11244" /><g /><g /><g /><g /></g>
<g transform="translate(235.33333333333334,309.5)" id="cell_$procmux$11247"><path d="M0,0 L20,10 L20,30 L0,40 Z" class="cell_$procmux$11247" /><g /><g /><g /><g /></g>
<g transform="translate(831,233)" id="cell_$ternary$PAL_44303B.v:105$9627"><path d="M0,0 L20,10 L20,30 L0,40 Z" class="cell_$ternary$PAL_44303B.v:105$9627" /><g /><g /><g /><g /></g>
<g transform="translate(831,168)" id="cell_$ternary$PAL_44303B.v:111$9629"><path d="M0,0 L20,10 L20,30 L0,40 Z" class="cell_$ternary$PAL_44303B.v:111$9629" /><g /><g /><g /><g /></g>
<g transform="translate(831,484.5)" id="cell_$ternary$PAL_44303B.v:91$9619"><path d="M0,0 L20,10 L20,30 L0,40 Z" class="cell_$ternary$PAL_44303B.v:91$9619" /><g /><g /><g /><g /></g>
<g transform="translate(831,309.5)" id="cell_$ternary$PAL_44303B.v:98$9621"><path d="M0,0 L20,10 L20,30 L0,40 Z" class="cell_$ternary$PAL_44303B.v:98$9621" /><g /><g /><g /><g /></g>
<g transform="translate(224,379.5)" id="cell_CK"><text x="15" y="-4" class="nodelabel cell_CK">CK</text><path d="M0,0 L0,20 L15,20 L30,10 L15,0 Z" class="cell_CK" /><g /></g>
<g transform="translate(224,248)" id="cell_sys_rst_n"><text x="15" y="-4" class="nodelabel cell_sys_rst_n">sys_rst_n</text><path d="M0,0 L0,20 L15,20 L30,10 L15,0 Z" class="cell_sys_rst_n" /><g /></g>
<g transform="translate(12,208)" id="cell_CACT_n"><text x="15" y="-4" class="nodelabel cell_CACT_n">CACT_n</text><path d="M0,0 L0,20 L15,20 L30,10 L15,0 Z" class="cell_CACT_n" /><g /></g>
<g transform="translate(83,97)" id="cell_CGNT_n"><text x="15" y="-4" class="nodelabel cell_CGNT_n">CGNT_n</text><path d="M0,0 L0,20 L15,20 L30,10 L15,0 Z" class="cell_CGNT_n" /><g /></g>
<g transform="translate(224,761.5)" id="cell_EADR_n"><text x="15" y="-4" class="nodelabel cell_EADR_n">EADR_n</text><path d="M0,0 L0,20 L15,20 L30,10 L15,0 Z" class="cell_EADR_n" /><g /></g>
<g transform="translate(353,706.5)" id="cell_BINPUT50_n"><text x="15" y="-4" class="nodelabel cell_BINPUT50_n">BINPUT50_n</text><path d="M0,0 L0,20 L15,20 L30,10 L15,0 Z" class="cell_BINPUT50_n" /><g /></g>
<g transform="translate(224,537)" id="cell_MIS0"><text x="15" y="-4" class="nodelabel cell_MIS0">MIS0</text><path d="M0,0 L0,20 L15,20 L30,10 L15,0 Z" class="cell_MIS0" /><g /></g>
<g transform="translate(154,634.5)" id="cell_IOD_n"><text x="15" y="-4" class="nodelabel cell_IOD_n">IOD_n</text><path d="M0,0 L0,20 L15,20 L30,10 L15,0 Z" class="cell_IOD_n" /><g /></g>
<g transform="translate(83,188)" id="cell_WRITE"><text x="15" y="-4" class="nodelabel cell_WRITE">WRITE</text><path d="M0,0 L0,20 L15,20 L30,10 L15,0 Z" class="cell_WRITE" /><g /></g>
<g transform="translate(761,429.5)" id="cell_TEST"><text x="15" y="-4" class="nodelabel cell_TEST">TEST</text><path d="M0,0 L0,20 L15,20 L30,10 L15,0 Z" class="cell_TEST" /><g /></g>
<g transform="translate(502,737.5)" id="cell_BACT_n"><text x="15" y="-4" class="nodelabel cell_BACT_n">BACT_n</text><path d="M0,0 L0,20 L15,20 L30,10 L15,0 Z" class="cell_BACT_n" /><g /></g>
<g transform="translate(886,494.5)" id="cell_WBD_n"><text x="15" y="-4" class="nodelabel cell_WBD_n">WBD_n</text><path d="M30,0 L30,20 L15,20 L0,10 L15,0 Z" class="cell_WBD_n" /><g /></g>
<g transform="translate(886,319.5)" id="cell_CBWRITE_n"><text x="15" y="-4" class="nodelabel cell_CBWRITE_n">CBWRITE_n</text><path d="M30,0 L30,20 L15,20 L0,10 L15,0 Z" class="cell_CBWRITE_n" /><g /></g>
<g transform="translate(886,243)" id="cell_WLBD_n"><text x="15" y="-4" class="nodelabel cell_WLBD_n">WLBD_n</text><path d="M30,0 L30,20 L15,20 L0,10 L15,0 Z" class="cell_WLBD_n" /><g /></g>
<g transform="translate(886,178)" id="cell_CMWRITE_n"><text x="15" y="-4" class="nodelabel cell_CMWRITE_n">CMWRITE_n</text><path d="M30,0 L30,20 L15,20 L0,10 L15,0 Z" class="cell_CMWRITE_n" /><g /></g>
<g transform="translate(83,32)" id="cell_0"><text x="15" y="-4" class="nodelabel cell_0">0</text><rect width="30" height="20" class="cell_0" /><g /></g>
<g transform="translate(154,781.5)" id="cell_1"><text x="15" y="-4" class="nodelabel cell_1">1</text><rect width="30" height="20" class="cell_1" /><g /></g>
<line x1="261" x2="308" y1="644.5" y2="644.5" class="net_17"><title>IOD</title></line>
<line x1="308" x2="308" y1="644.5" y2="674.5" class="net_17"><title>IOD</title></line>
<line x1="308" x2="447" y1="674.5" y2="674.5" class="net_17"><title>IOD</title></line>
<line x1="447" x2="447" y1="674.5" y2="532" class="net_17"><title>IOD</title></line>
<circle cx="308" cy="644.5" r="2" style="fill:#000" class="net_17" />
<line x1="447" x2="511.6666666666667" y1="532" y2="532" class="net_17"><title>IOD</title></line>
<line x1="261" x2="362.6666666666667" y1="644.5" y2="644.5" class="net_17"><title>IOD</title></line>
<line x1="252" x2="511.6666666666667" y1="547" y2="547" class="net_8"><title>MIS0</title></line>
<line x1="252" x2="318" y1="547" y2="547" class="net_8"><title>MIS0</title></line>
<line x1="318" x2="318" y1="547" y2="659.5" class="net_8"><title>MIS0</title></line>
<circle cx="318" cy="547" r="2" style="fill:#000" class="net_8" />
<line x1="318" x2="362.6666666666667" y1="659.5" y2="659.5" class="net_8"><title>MIS0</title></line>
<line x1="541.6666666666667" x2="626" y1="539.5" y2="539.5" class="net_18" />
<line x1="381" x2="616" y1="716.5" y2="716.5" class="net_7"><title>BINPUT50_n</title></line>
<line x1="616" x2="616" y1="716.5" y2="554.5" class="net_7"><title>BINPUT50_n</title></line>
<line x1="616" x2="626" y1="554.5" y2="554.5" class="net_7"><title>BINPUT50_n</title></line>
<line x1="381" x2="467" y1="716.5" y2="716.5" class="net_7"><title>BINPUT50_n</title></line>
<line x1="467" x2="467" y1="716.5" y2="667" class="net_7"><title>BINPUT50_n</title></line>
<circle cx="467" cy="716.5" r="2" style="fill:#000" class="net_7" />
<line x1="467" x2="511.6666666666667" y1="667" y2="667" class="net_7"><title>BINPUT50_n</title></line>
<line x1="111" x2="129" y1="198" y2="198" class="net_10"><title>WRITE</title></line>
<line x1="129" x2="129" y1="198" y2="841.5" class="net_10"><title>WRITE</title></line>
<circle cx="129" cy="198" r="2" style="fill:#000" class="net_10" />
<line x1="129" x2="154" y1="841.5" y2="841.5" class="net_10"><title>WRITE</title></line>
<line x1="111" x2="204" y1="198" y2="198" class="net_10"><title>WRITE</title></line>
<line x1="204" x2="204" y1="198" y2="92" class="net_10"><title>WRITE</title></line>
<line x1="204" x2="232" y1="92" y2="92" class="net_10"><title>WRITE</title></line>
<line x1="111" x2="154" y1="856.5" y2="856.5" class="net_20"><title>CACT</title></line>
<line x1="179" x2="232" y1="107" y2="107" class="net_22"><title>CGNT</title></line>
<line x1="392.6666666666667" x2="511.6666666666667" y1="652" y2="652" class="net_24" />
<line x1="726" x2="761" y1="374.5" y2="374.5" class="net_26" />
<line x1="533" x2="761" y1="178" y2="178" class="net_28"><title>CMWRITE</title></line>
<line x1="533" x2="606" y1="178" y2="178" class="net_28"><title>CMWRITE</title></line>
<line x1="606" x2="606" y1="178" y2="304.5" class="net_28"><title>CMWRITE</title></line>
<line x1="606" x2="629" y1="304.5" y2="304.5" class="net_28"><title>CMWRITE</title></line>
<line x1="533" x2="606" y1="178" y2="178" class="net_28"><title>CMWRITE</title></line>
<line x1="606" x2="606" y1="178" y2="62" class="net_28"><title>CMWRITE</title></line>
<line x1="606" x2="214" y1="62" y2="62" class="net_28"><title>CMWRITE</title></line>
<line x1="214" x2="214" y1="62" y2="22" class="net_28"><title>CMWRITE</title></line>
<circle cx="606" cy="178" r="2" style="fill:#000" class="net_28" />
<line x1="214" x2="238.66666666666666" y1="22" y2="22" class="net_28"><title>CMWRITE</title></line>
<line x1="40" x2="58" y1="218" y2="218" class="net_4"><title>CACT_n</title></line>
<line x1="58" x2="58" y1="218" y2="856.5" class="net_4"><title>CACT_n</title></line>
<circle cx="58" cy="218" r="2" style="fill:#000" class="net_4" />
<line x1="58" x2="86" y1="856.5" y2="856.5" class="net_4"><title>CACT_n</title></line>
<line x1="40" x2="170.66666666666666" y1="218" y2="218" class="net_4"><title>CACT_n</title></line>
<line x1="170.66666666666666" x2="170.66666666666666" y1="218" y2="173" class="net_4"><title>CACT_n</title></line>
<line x1="111" x2="154" y1="107" y2="107" class="net_5"><title>CGNT_n</title></line>
<line x1="111" x2="139" y1="107" y2="107" class="net_5"><title>CGNT_n</title></line>
<line x1="139" x2="139" y1="107" y2="127" class="net_5"><title>CGNT_n</title></line>
<line x1="139" x2="194" y1="127" y2="127" class="net_5"><title>CGNT_n</title></line>
<line x1="194" x2="194" y1="127" y2="72" class="net_5"><title>CGNT_n</title></line>
<line x1="194" x2="248.66666666666666" y1="72" y2="72" class="net_5"><title>CGNT_n</title></line>
<circle cx="139" cy="107" r="2" style="fill:#000" class="net_5" />
<line x1="248.66666666666666" x2="248.66666666666666" y1="72" y2="47" class="net_5"><title>CGNT_n</title></line>
<line x1="252" x2="367.5" y1="771.5" y2="771.5" class="net_6"><title>EADR_n</title></line>
<line x1="182" x2="236" y1="644.5" y2="644.5" class="net_9"><title>IOD_n</title></line>
<line x1="530" x2="626" y1="747.5" y2="747.5" class="net_12"><title>BACT_n</title></line>
<line x1="726" x2="761" y1="494.5" y2="494.5" class="net_32" />
<line x1="384" x2="596" y1="289.5" y2="289.5" class="net_34"><title>CBWRITE</title></line>
<line x1="596" x2="596" y1="289.5" y2="319.5" class="net_34"><title>CBWRITE</title></line>
<circle cx="596" cy="289.5" r="2" style="fill:#000" class="net_34" />
<line x1="596" x2="761" y1="319.5" y2="319.5" class="net_34"><title>CBWRITE</title></line>
<line x1="384" x2="629" y1="289.5" y2="289.5" class="net_34"><title>CBWRITE</title></line>
<line x1="384" x2="467" y1="289.5" y2="289.5" class="net_34"><title>CBWRITE</title></line>
<line x1="467" x2="467" y1="289.5" y2="607" class="net_34"><title>CBWRITE</title></line>
<line x1="467" x2="514.6666666666667" y1="607" y2="607" class="net_34"><title>CBWRITE</title></line>
<line x1="384" x2="467" y1="289.5" y2="289.5" class="net_34"><title>CBWRITE</title></line>
<line x1="467" x2="467" y1="289.5" y2="188" class="net_34"><title>CBWRITE</title></line>
<line x1="467" x2="139" y1="188" y2="188" class="net_34"><title>CBWRITE</title></line>
<line x1="139" x2="139" y1="188" y2="148" class="net_34"><title>CBWRITE</title></line>
<circle cx="467" cy="289.5" r="2" style="fill:#000" class="net_34" />
<line x1="139" x2="160.66666666666666" y1="148" y2="148" class="net_34"><title>CBWRITE</title></line>
<line x1="656" x2="666" y1="297" y2="297" class="net_36" />
<line x1="666" x2="666" y1="297" y2="367" class="net_36" />
<line x1="666" x2="699" y1="367" y2="367" class="net_36" />
<line x1="656" x2="666" y1="547" y2="547" class="net_19" />
<line x1="666" x2="666" y1="547" y2="382" class="net_19" />
<line x1="666" x2="699" y1="382" y2="382" class="net_19" />
<line x1="392.5" x2="457" y1="771.5" y2="771.5" class="net_30"><title>EADR</title></line>
<line x1="457" x2="457" y1="771.5" y2="592" class="net_30"><title>EADR</title></line>
<line x1="457" x2="514.6666666666667" y1="592" y2="592" class="net_30"><title>EADR</title></line>
<line x1="541.6666666666667" x2="596" y1="599.5" y2="599.5" class="net_37" />
<line x1="596" x2="596" y1="599.5" y2="479.5" class="net_37" />
<line x1="596" x2="629" y1="479.5" y2="479.5" class="net_37" />
<line x1="541.6666666666667" x2="606" y1="659.5" y2="659.5" class="net_25" />
<line x1="606" x2="606" y1="659.5" y2="494.5" class="net_25" />
<line x1="606" x2="629" y1="494.5" y2="494.5" class="net_25" />
<line x1="656" x2="699" y1="487" y2="487" class="net_38" />
<line x1="651" x2="676" y1="747.5" y2="747.5" class="net_31"><title>BACT</title></line>
<line x1="676" x2="676" y1="747.5" y2="502" class="net_31"><title>BACT</title></line>
<line x1="676" x2="699" y1="502" y2="502" class="net_31"><title>BACT</title></line>
<line x1="252" x2="308" y1="258" y2="258" class="net_3"><title>sys_rst_n</title></line>
<line x1="308" x2="308" y1="258" y2="289.5" class="net_3"><title>sys_rst_n</title></line>
<circle cx="308" cy="258" r="2" style="fill:#000" class="net_3" />
<line x1="308" x2="353" y1="289.5" y2="289.5" class="net_3"><title>sys_rst_n</title></line>
<line x1="252" x2="447" y1="258" y2="258" class="net_3"><title>sys_rst_n</title></line>
<line x1="447" x2="447" y1="258" y2="178" class="net_3"><title>sys_rst_n</title></line>
<line x1="447" x2="502" y1="178" y2="178" class="net_3"><title>sys_rst_n</title></line>
<line x1="252" x2="308" y1="389.5" y2="389.5" class="net_2"><title>CK</title></line>
<line x1="308" x2="308" y1="389.5" y2="309.5" class="net_2"><title>CK</title></line>
<circle cx="308" cy="389.5" r="2" style="fill:#000" class="net_2" />
<line x1="308" x2="353" y1="309.5" y2="309.5" class="net_2"><title>CK</title></line>
<line x1="252" x2="457" y1="389.5" y2="389.5" class="net_2"><title>CK</title></line>
<line x1="457" x2="457" y1="389.5" y2="198" class="net_2"><title>CK</title></line>
<line x1="457" x2="502" y1="198" y2="198" class="net_2"><title>CK</title></line>
<line x1="255.33333333333334" x2="353" y1="329.5" y2="329.5" class="net_39" />
<line x1="386" x2="502" y1="218" y2="218" class="net_40" />
<line x1="113" x2="238.66666666666666" y1="42" y2="42" class="net_43" />
<line x1="113" x2="129" y1="42" y2="42" class="net_43" />
<line x1="129" x2="129" y1="42" y2="168" class="net_43" />
<circle cx="129" cy="42" r="2" style="fill:#000" class="net_43" />
<line x1="129" x2="160.66666666666666" y1="168" y2="168" class="net_43" />
<line x1="258.66666666666663" x2="298" y1="32" y2="32" class="net_41" />
<line x1="298" x2="298" y1="32" y2="208" class="net_41" />
<line x1="298" x2="366" y1="208" y2="208" class="net_41" />
<line x1="184" x2="298" y1="791.5" y2="791.5" class="net_44" />
<line x1="298" x2="298" y1="791.5" y2="228" class="net_44" />
<circle cx="298" cy="791.5" r="2" style="fill:#000" class="net_44" />
<line x1="298" x2="366" y1="228" y2="228" class="net_44" />
<line x1="184" x2="204" y1="791.5" y2="791.5" class="net_44" />
<line x1="204" x2="204" y1="791.5" y2="339.5" class="net_44" />
<circle cx="204" cy="791.5" r="2" style="fill:#000" class="net_44" />
<line x1="204" x2="235.33333333333334" y1="339.5" y2="339.5" class="net_44" />
<line x1="184" x2="686" y1="791.5" y2="791.5" class="net_44" />
<line x1="686" x2="686" y1="791.5" y2="685.5" class="net_44" />
<line x1="686" x2="811" y1="685.5" y2="685.5" class="net_44" />
<line x1="811" x2="811" y1="685.5" y2="263" class="net_44" />
<circle cx="686" cy="685.5" r="2" style="fill:#000" class="net_44" />
<circle cx="811" cy="263" r="2" style="fill:#000" class="net_44" />
<line x1="811" x2="831" y1="263" y2="263" class="net_44" />
<line x1="184" x2="204" y1="791.5" y2="791.5" class="net_44" />
<line x1="204" x2="204" y1="791.5" y2="685.5" class="net_44" />
<line x1="204" x2="811" y1="685.5" y2="685.5" class="net_44" />
<line x1="811" x2="811" y1="685.5" y2="198" class="net_44" />
<circle cx="204" cy="685.5" r="2" style="fill:#000" class="net_44" />
<line x1="811" x2="831" y1="198" y2="198" class="net_44" />
<line x1="184" x2="686" y1="791.5" y2="791.5" class="net_44" />
<line x1="686" x2="686" y1="791.5" y2="685.5" class="net_44" />
<line x1="686" x2="811" y1="685.5" y2="685.5" class="net_44" />
<line x1="811" x2="811" y1="685.5" y2="514.5" class="net_44" />
<circle cx="811" cy="514.5" r="2" style="fill:#000" class="net_44" />
<line x1="811" x2="831" y1="514.5" y2="514.5" class="net_44" />
<line x1="184" x2="686" y1="791.5" y2="791.5" class="net_44" />
<line x1="686" x2="686" y1="791.5" y2="685.5" class="net_44" />
<line x1="686" x2="811" y1="685.5" y2="685.5" class="net_44" />
<line x1="811" x2="811" y1="685.5" y2="339.5" class="net_44" />
<circle cx="811" cy="339.5" r="2" style="fill:#000" class="net_44" />
<line x1="811" x2="831" y1="339.5" y2="339.5" class="net_44" />
<line x1="262" x2="288" y1="99.5" y2="99.5" class="net_23" />
<line x1="288" x2="288" y1="99.5" y2="248" class="net_23" />
<line x1="288" x2="376" y1="248" y2="248" class="net_23" />
<line x1="376" x2="376" y1="248" y2="233" class="net_23" />
<line x1="180.66666666666666" x2="214" y1="158" y2="158" class="net_42" />
<line x1="214" x2="214" y1="158" y2="319.5" class="net_42" />
<line x1="214" x2="235.33333333333334" y1="319.5" y2="319.5" class="net_42" />
<line x1="184" x2="194" y1="849" y2="849" class="net_21" />
<line x1="194" x2="194" y1="849" y2="359.5" class="net_21" />
<line x1="194" x2="245.33333333333334" y1="359.5" y2="359.5" class="net_21" />
<line x1="245.33333333333334" x2="245.33333333333334" y1="359.5" y2="344.5" class="net_21" />
<line x1="786" x2="801" y1="374.5" y2="374.5" class="net_27" />
<line x1="801" x2="801" y1="374.5" y2="243" class="net_27" />
<line x1="801" x2="831" y1="243" y2="243" class="net_27" />
<line x1="789" x2="821" y1="439.5" y2="439.5" class="net_11"><title>TEST</title></line>
<line x1="821" x2="821" y1="439.5" y2="299.5" class="net_11"><title>TEST</title></line>
<line x1="821" x2="841" y1="299.5" y2="299.5" class="net_11"><title>TEST</title></line>
<circle cx="821" cy="439.5" r="2" style="fill:#000" class="net_11" />
<circle cx="821" cy="299.5" r="2" style="fill:#000" class="net_11" />
<line x1="841" x2="841" y1="299.5" y2="268" class="net_11"><title>TEST</title></line>
<line x1="789" x2="821" y1="439.5" y2="439.5" class="net_11"><title>TEST</title></line>
<line x1="821" x2="821" y1="439.5" y2="223" class="net_11"><title>TEST</title></line>
<line x1="821" x2="841" y1="223" y2="223" class="net_11"><title>TEST</title></line>
<line x1="841" x2="841" y1="223" y2="203" class="net_11"><title>TEST</title></line>
<line x1="789" x2="821" y1="439.5" y2="439.5" class="net_11"><title>TEST</title></line>
<line x1="821" x2="821" y1="439.5" y2="534.5" class="net_11"><title>TEST</title></line>
<line x1="821" x2="841" y1="534.5" y2="534.5" class="net_11"><title>TEST</title></line>
<line x1="841" x2="841" y1="534.5" y2="519.5" class="net_11"><title>TEST</title></line>
<line x1="789" x2="841" y1="439.5" y2="439.5" class="net_11"><title>TEST</title></line>
<line x1="841" x2="841" y1="439.5" y2="344.5" class="net_11"><title>TEST</title></line>
<line x1="786" x2="831" y1="178" y2="178" class="net_29" />
<line x1="786" x2="831" y1="494.5" y2="494.5" class="net_33" />
<line x1="786" x2="831" y1="319.5" y2="319.5" class="net_35" />
<line x1="851" x2="886" y1="504.5" y2="504.5" class="net_13"><title>WBD_n</title></line>
<line x1="851" x2="886" y1="329.5" y2="329.5" class="net_14"><title>CBWRITE_n</title></line>
<line x1="851" x2="886" y1="253" y2="253" class="net_15"><title>WLBD_n</title></line>
<line x1="851" x2="886" y1="188" y2="188" class="net_16"><title>CMWRITE_n</title></line>
<text x="114.0" y="195.0" class="netlabel">WRITE</text>
<text x="792.0" y="436.5" class="netlabel">TEST</text>
<text x="533.0" y="744.5" class="netlabel">BACT_n</text>
<text x="854.0" y="501.5" class="netlabel">WBD_n</text>
<text x="854.0" y="326.5" class="netlabel">CBWRITE_n</text>
<text x="854.0" y="250.0" class="netlabel">WLBD_n</text>
<text x="854.0" y="185.0" class="netlabel">CMWRITE_n</text>
<text x="311.0" y="671.5" class="netlabel">IOD</text>
<text x="255.0" y="386.5" class="netlabel">CK</text>
<text x="114.0" y="853.5" class="netlabel">CACT</text>
<text x="182.0" y="104.0" class="netlabel">CGNT</text>
<text x="217.0" y="59.0" class="netlabel">CMWRITE</text>
<text x="255.0" y="255.0" class="netlabel">sys_rst_n</text>
<text x="395.5" y="768.5" class="netlabel">EADR</text>
<text x="654.0" y="744.5" class="netlabel">BACT</text>
<text x="142.0" y="185.0" class="netlabel">CBWRITE</text>
<text x="43.0" y="215.0" class="netlabel">CACT_n</text>
<text x="142.0" y="124.0" class="netlabel">CGNT_n</text>
<text x="255.0" y="768.5" class="netlabel">EADR_n</text>
<text x="384.0" y="713.5" class="netlabel">BINPUT50_n</text>
<text x="255.0" y="544.0" class="netlabel">MIS0</text>
<text x="185.0" y="641.5" class="netlabel">IOD_n</text>
</svg>
