<svg xmlns="http://www.w3.org/2000/svg" width="840.0" height="2226.0" viewBox="-80.0 -80.0 840.0 2226.0"><style>svg {
    stroke:#000;
    fill:none;
  }
  text {
    fill:#000;
    stroke:none;
    font-size:10px;
    font-weight: bold;
    font-family: "Courier New", monospace;
  }
  .nodelabel {
    text-anchor: middle;
  }
  .inputPortLabel {
    text-anchor: end;
  }
  .splitjoinBody {
    fill:#000;
  }
.netlabel { font-family: sans-serif; font-size: 8px; fill: #1565c0; }
a:hover rect { fill: #e3f2fd; }
a { cursor: pointer; }
</style>
<rect x="-80.0" y="-80.0" width="840.0" height="2226.0" fill="#ffffff" /><g transform="translate(83,22)" id="cell_$not$CGA_ALU_RALU_MUX216L.v:51$10701"><path d="M0,0 L0,20 L20,10 Z" class="cell_$not$CGA_ALU_RALU_MUX216L.v:51$10701" /><circle cx="23" cy="10" r="3" class="cell_$not$CGA_ALU_RALU_MUX216L.v:51$10701" /><g /><g /></g>
<a href="../../../../Shared/ndlib/doc/MUX21LP.md"><title>MUXQ0 (MUX21LP) - open its page</title><g transform="translate(410,41.5)" id="cell_MUXQ0"><text x="15" y="-4" class="nodelabel cell_MUXQ0">MUX21LP</text><rect width="30" height="60" class="cell_MUXQ0" /><g transform="translate(0,10)" id="port_MUXQ0~A"><text x="-3" y="-4" class="inputPortLabel cell_MUXQ0">A</text></g><g transform="translate(0,30)" id="port_MUXQ0~B"><text x="-3" y="-4" class="inputPortLabel cell_MUXQ0">B</text></g><g transform="translate(0,50)" id="port_MUXQ0~S"><text x="-3" y="-4" class="inputPortLabel cell_MUXQ0">S</text></g><g transform="translate(30,10)" id="port_MUXQ0~ZN"><text x="5" y="-4" style="fill:#000; stroke:none" class="cell_MUXQ0">ZN</text></g></g></a>
<a href="../../../../Shared/ndlib/doc/MUX21LP.md"><title>MUXQ1 (MUX21LP) - open its page</title><g transform="translate(410,149.5)" id="cell_MUXQ1"><text x="15" y="-4" class="nodelabel cell_MUXQ1">MUX21LP</text><rect width="30" height="60" class="cell_MUXQ1" /><g transform="translate(0,10)" id="port_MUXQ1~A"><text x="-3" y="-4" class="inputPortLabel cell_MUXQ1">A</text></g><g transform="translate(0,30)" id="port_MUXQ1~B"><text x="-3" y="-4" class="inputPortLabel cell_MUXQ1">B</text></g><g transform="translate(0,50)" id="port_MUXQ1~S"><text x="-3" y="-4" class="inputPortLabel cell_MUXQ1">S</text></g><g transform="translate(30,10)" id="port_MUXQ1~ZN"><text x="5" y="-4" style="fill:#000; stroke:none" class="cell_MUXQ1">ZN</text></g></g></a>
<a href="../../../../Shared/ndlib/doc/MUX21LP.md"><title>MUXQ10 (MUX21LP) - open its page</title><g transform="translate(410,257.5)" id="cell_MUXQ10"><text x="15" y="-4" class="nodelabel cell_MUXQ10">MUX21LP</text><rect width="30" height="60" class="cell_MUXQ10" /><g transform="translate(0,10)" id="port_MUXQ10~A"><text x="-3" y="-4" class="inputPortLabel cell_MUXQ10">A</text></g><g transform="translate(0,30)" id="port_MUXQ10~B"><text x="-3" y="-4" class="inputPortLabel cell_MUXQ10">B</text></g><g transform="translate(0,50)" id="port_MUXQ10~S"><text x="-3" y="-4" class="inputPortLabel cell_MUXQ10">S</text></g><g transform="translate(30,10)" id="port_MUXQ10~ZN"><text x="5" y="-4" style="fill:#000; stroke:none" class="cell_MUXQ10">ZN</text></g></g></a>
<a href="../../../../Shared/ndlib/doc/MUX21LP.md"><title>MUXQ11 (MUX21LP) - open its page</title><g transform="translate(410,365.5)" id="cell_MUXQ11"><text x="15" y="-4" class="nodelabel cell_MUXQ11">MUX21LP</text><rect width="30" height="60" class="cell_MUXQ11" /><g transform="translate(0,10)" id="port_MUXQ11~A"><text x="-3" y="-4" class="inputPortLabel cell_MUXQ11">A</text></g><g transform="translate(0,30)" id="port_MUXQ11~B"><text x="-3" y="-4" class="inputPortLabel cell_MUXQ11">B</text></g><g transform="translate(0,50)" id="port_MUXQ11~S"><text x="-3" y="-4" class="inputPortLabel cell_MUXQ11">S</text></g><g transform="translate(30,10)" id="port_MUXQ11~ZN"><text x="5" y="-4" style="fill:#000; stroke:none" class="cell_MUXQ11">ZN</text></g></g></a>
<a href="../../../../Shared/ndlib/doc/MUX21LP.md"><title>MUXQ12 (MUX21LP) - open its page</title><g transform="translate(410,473.5)" id="cell_MUXQ12"><text x="15" y="-4" class="nodelabel cell_MUXQ12">MUX21LP</text><rect width="30" height="60" class="cell_MUXQ12" /><g transform="translate(0,10)" id="port_MUXQ12~A"><text x="-3" y="-4" class="inputPortLabel cell_MUXQ12">A</text></g><g transform="translate(0,30)" id="port_MUXQ12~B"><text x="-3" y="-4" class="inputPortLabel cell_MUXQ12">B</text></g><g transform="translate(0,50)" id="port_MUXQ12~S"><text x="-3" y="-4" class="inputPortLabel cell_MUXQ12">S</text></g><g transform="translate(30,10)" id="port_MUXQ12~ZN"><text x="5" y="-4" style="fill:#000; stroke:none" class="cell_MUXQ12">ZN</text></g></g></a>
<a href="../../../../Shared/ndlib/doc/MUX21LP.md"><title>MUXQ13 (MUX21LP) - open its page</title><g transform="translate(410,581.5)" id="cell_MUXQ13"><text x="15" y="-4" class="nodelabel cell_MUXQ13">MUX21LP</text><rect width="30" height="60" class="cell_MUXQ13" /><g transform="translate(0,10)" id="port_MUXQ13~A"><text x="-3" y="-4" class="inputPortLabel cell_MUXQ13">A</text></g><g transform="translate(0,30)" id="port_MUXQ13~B"><text x="-3" y="-4" class="inputPortLabel cell_MUXQ13">B</text></g><g transform="translate(0,50)" id="port_MUXQ13~S"><text x="-3" y="-4" class="inputPortLabel cell_MUXQ13">S</text></g><g transform="translate(30,10)" id="port_MUXQ13~ZN"><text x="5" y="-4" style="fill:#000; stroke:none" class="cell_MUXQ13">ZN</text></g></g></a>
<a href="../../../../Shared/ndlib/doc/MUX21LP.md"><title>MUXQ14 (MUX21LP) - open its page</title><g transform="translate(410,689.5)" id="cell_MUXQ14"><text x="15" y="-4" class="nodelabel cell_MUXQ14">MUX21LP</text><rect width="30" height="60" class="cell_MUXQ14" /><g transform="translate(0,10)" id="port_MUXQ14~A"><text x="-3" y="-4" class="inputPortLabel cell_MUXQ14">A</text></g><g transform="translate(0,30)" id="port_MUXQ14~B"><text x="-3" y="-4" class="inputPortLabel cell_MUXQ14">B</text></g><g transform="translate(0,50)" id="port_MUXQ14~S"><text x="-3" y="-4" class="inputPortLabel cell_MUXQ14">S</text></g><g transform="translate(30,10)" id="port_MUXQ14~ZN"><text x="5" y="-4" style="fill:#000; stroke:none" class="cell_MUXQ14">ZN</text></g></g></a>
<a href="../../../../Shared/ndlib/doc/MUX21LP.md"><title>MUXQ15 (MUX21LP) - open its page</title><g transform="translate(410,797.5)" id="cell_MUXQ15"><text x="15" y="-4" class="nodelabel cell_MUXQ15">MUX21LP</text><rect width="30" height="60" class="cell_MUXQ15" /><g transform="translate(0,10)" id="port_MUXQ15~A"><text x="-3" y="-4" class="inputPortLabel cell_MUXQ15">A</text></g><g transform="translate(0,30)" id="port_MUXQ15~B"><text x="-3" y="-4" class="inputPortLabel cell_MUXQ15">B</text></g><g transform="translate(0,50)" id="port_MUXQ15~S"><text x="-3" y="-4" class="inputPortLabel cell_MUXQ15">S</text></g><g transform="translate(30,10)" id="port_MUXQ15~ZN"><text x="5" y="-4" style="fill:#000; stroke:none" class="cell_MUXQ15">ZN</text></g></g></a>
<a href="../../../../Shared/ndlib/doc/MUX21LP.md"><title>MUXQ2 (MUX21LP) - open its page</title><g transform="translate(410,905.5)" id="cell_MUXQ2"><text x="15" y="-4" class="nodelabel cell_MUXQ2">MUX21LP</text><rect width="30" height="60" class="cell_MUXQ2" /><g transform="translate(0,10)" id="port_MUXQ2~A"><text x="-3" y="-4" class="inputPortLabel cell_MUXQ2">A</text></g><g transform="translate(0,30)" id="port_MUXQ2~B"><text x="-3" y="-4" class="inputPortLabel cell_MUXQ2">B</text></g><g transform="translate(0,50)" id="port_MUXQ2~S"><text x="-3" y="-4" class="inputPortLabel cell_MUXQ2">S</text></g><g transform="translate(30,10)" id="port_MUXQ2~ZN"><text x="5" y="-4" style="fill:#000; stroke:none" class="cell_MUXQ2">ZN</text></g></g></a>
<a href="../../../../Shared/ndlib/doc/MUX21LP.md"><title>MUXQ3 (MUX21LP) - open its page</title><g transform="translate(410,1013.5)" id="cell_MUXQ3"><text x="15" y="-4" class="nodelabel cell_MUXQ3">MUX21LP</text><rect width="30" height="60" class="cell_MUXQ3" /><g transform="translate(0,10)" id="port_MUXQ3~A"><text x="-3" y="-4" class="inputPortLabel cell_MUXQ3">A</text></g><g transform="translate(0,30)" id="port_MUXQ3~B"><text x="-3" y="-4" class="inputPortLabel cell_MUXQ3">B</text></g><g transform="translate(0,50)" id="port_MUXQ3~S"><text x="-3" y="-4" class="inputPortLabel cell_MUXQ3">S</text></g><g transform="translate(30,10)" id="port_MUXQ3~ZN"><text x="5" y="-4" style="fill:#000; stroke:none" class="cell_MUXQ3">ZN</text></g></g></a>
<a href="../../../../Shared/ndlib/doc/MUX21LP.md"><title>MUXQ4 (MUX21LP) - open its page</title><g transform="translate(410,1121.5)" id="cell_MUXQ4"><text x="15" y="-4" class="nodelabel cell_MUXQ4">MUX21LP</text><rect width="30" height="60" class="cell_MUXQ4" /><g transform="translate(0,10)" id="port_MUXQ4~A"><text x="-3" y="-4" class="inputPortLabel cell_MUXQ4">A</text></g><g transform="translate(0,30)" id="port_MUXQ4~B"><text x="-3" y="-4" class="inputPortLabel cell_MUXQ4">B</text></g><g transform="translate(0,50)" id="port_MUXQ4~S"><text x="-3" y="-4" class="inputPortLabel cell_MUXQ4">S</text></g><g transform="translate(30,10)" id="port_MUXQ4~ZN"><text x="5" y="-4" style="fill:#000; stroke:none" class="cell_MUXQ4">ZN</text></g></g></a>
<a href="../../../../Shared/ndlib/doc/MUX21LP.md"><title>MUXQ5 (MUX21LP) - open its page</title><g transform="translate(410,1229.5)" id="cell_MUXQ5"><text x="15" y="-4" class="nodelabel cell_MUXQ5">MUX21LP</text><rect width="30" height="60" class="cell_MUXQ5" /><g transform="translate(0,10)" id="port_MUXQ5~A"><text x="-3" y="-4" class="inputPortLabel cell_MUXQ5">A</text></g><g transform="translate(0,30)" id="port_MUXQ5~B"><text x="-3" y="-4" class="inputPortLabel cell_MUXQ5">B</text></g><g transform="translate(0,50)" id="port_MUXQ5~S"><text x="-3" y="-4" class="inputPortLabel cell_MUXQ5">S</text></g><g transform="translate(30,10)" id="port_MUXQ5~ZN"><text x="5" y="-4" style="fill:#000; stroke:none" class="cell_MUXQ5">ZN</text></g></g></a>
<a href="../../../../Shared/ndlib/doc/MUX21LP.md"><title>MUXQ6 (MUX21LP) - open its page</title><g transform="translate(410,1337.5)" id="cell_MUXQ6"><text x="15" y="-4" class="nodelabel cell_MUXQ6">MUX21LP</text><rect width="30" height="60" class="cell_MUXQ6" /><g transform="translate(0,10)" id="port_MUXQ6~A"><text x="-3" y="-4" class="inputPortLabel cell_MUXQ6">A</text></g><g transform="translate(0,30)" id="port_MUXQ6~B"><text x="-3" y="-4" class="inputPortLabel cell_MUXQ6">B</text></g><g transform="translate(0,50)" id="port_MUXQ6~S"><text x="-3" y="-4" class="inputPortLabel cell_MUXQ6">S</text></g><g transform="translate(30,10)" id="port_MUXQ6~ZN"><text x="5" y="-4" style="fill:#000; stroke:none" class="cell_MUXQ6">ZN</text></g></g></a>
<a href="../../../../Shared/ndlib/doc/MUX21LP.md"><title>MUXQ7 (MUX21LP) - open its page</title><g transform="translate(410,1445.5)" id="cell_MUXQ7"><text x="15" y="-4" class="nodelabel cell_MUXQ7">MUX21LP</text><rect width="30" height="60" class="cell_MUXQ7" /><g transform="translate(0,10)" id="port_MUXQ7~A"><text x="-3" y="-4" class="inputPortLabel cell_MUXQ7">A</text></g><g transform="translate(0,30)" id="port_MUXQ7~B"><text x="-3" y="-4" class="inputPortLabel cell_MUXQ7">B</text></g><g transform="translate(0,50)" id="port_MUXQ7~S"><text x="-3" y="-4" class="inputPortLabel cell_MUXQ7">S</text></g><g transform="translate(30,10)" id="port_MUXQ7~ZN"><text x="5" y="-4" style="fill:#000; stroke:none" class="cell_MUXQ7">ZN</text></g></g></a>
<a href="../../../../Shared/ndlib/doc/MUX21LP.md"><title>MUXQ8 (MUX21LP) - open its page</title><g transform="translate(410,1553.5)" id="cell_MUXQ8"><text x="15" y="-4" class="nodelabel cell_MUXQ8">MUX21LP</text><rect width="30" height="60" class="cell_MUXQ8" /><g transform="translate(0,10)" id="port_MUXQ8~A"><text x="-3" y="-4" class="inputPortLabel cell_MUXQ8">A</text></g><g transform="translate(0,30)" id="port_MUXQ8~B"><text x="-3" y="-4" class="inputPortLabel cell_MUXQ8">B</text></g><g transform="translate(0,50)" id="port_MUXQ8~S"><text x="-3" y="-4" class="inputPortLabel cell_MUXQ8">S</text></g><g transform="translate(30,10)" id="port_MUXQ8~ZN"><text x="5" y="-4" style="fill:#000; stroke:none" class="cell_MUXQ8">ZN</text></g></g></a>
<a href="../../../../Shared/ndlib/doc/MUX21LP.md"><title>MUXQ9 (MUX21LP) - open its page</title><g transform="translate(410,1661.5)" id="cell_MUXQ9"><text x="15" y="-4" class="nodelabel cell_MUXQ9">MUX21LP</text><rect width="30" height="60" class="cell_MUXQ9" /><g transform="translate(0,10)" id="port_MUXQ9~A"><text x="-3" y="-4" class="inputPortLabel cell_MUXQ9">A</text></g><g transform="translate(0,30)" id="port_MUXQ9~B"><text x="-3" y="-4" class="inputPortLabel cell_MUXQ9">B</text></g><g transform="translate(0,50)" id="port_MUXQ9~S"><text x="-3" y="-4" class="inputPortLabel cell_MUXQ9">S</text></g><g transform="translate(30,10)" id="port_MUXQ9~ZN"><text x="5" y="-4" style="fill:#000; stroke:none" class="cell_MUXQ9">ZN</text></g></g></a>
<g transform="translate(12,160)" id="cell_F_15_0"><text x="15" y="-4" class="nodelabel cell_F_15_0">F_15_0</text><path d="M0,0 L0,20 L15,20 L30,10 L15,0 Z" class="cell_F_15_0" /><g /></g>
<g transform="translate(12,22)" id="cell_S"><text x="15" y="-4" class="nodelabel cell_S">S</text><path d="M0,0 L0,20 L15,20 L30,10 L15,0 Z" class="cell_S" /><g /></g>
<g transform="translate(12,1692)" id="cell_T_15_0"><text x="15" y="-4" class="nodelabel cell_T_15_0">T_15_0</text><path d="M0,0 L0,20 L15,20 L30,10 L15,0 Z" class="cell_T_15_0" /><g /></g>
<g transform="translate(632,964)" id="cell_O_15_0"><text x="15" y="-4" class="nodelabel cell_O_15_0">O_15_0</text><path d="M30,0 L30,20 L15,20 L0,10 L15,0 Z" class="cell_O_15_0" /><g /></g>
<g transform="translate(591,953.5)" id="cell_$join$,35,36,37,38,39,40,41,42,43,44,45,46,47,48,49,50,"><rect width="5" height="320" class="splitjoinBody" /><g /><g transform="translate(0,10)"><text x="-3" y="-4" class="inputPortLabel">0</text></g><g transform="translate(0,30)"><text x="-3" y="-4" class="inputPortLabel">1</text></g><g transform="translate(0,50)"><text x="-3" y="-4" class="inputPortLabel">2</text></g><g transform="translate(0,70)"><text x="-3" y="-4" class="inputPortLabel">3</text></g><g transform="translate(0,90)"><text x="-3" y="-4" class="inputPortLabel">4</text></g><g transform="translate(0,110)"><text x="-3" y="-4" class="inputPortLabel">5</text></g><g transform="translate(0,130)"><text x="-3" y="-4" class="inputPortLabel">6</text></g><g transform="translate(0,150)"><text x="-3" y="-4" class="inputPortLabel">7</text></g><g transform="translate(0,170)"><text x="-3" y="-4" class="inputPortLabel">8</text></g><g transform="translate(0,190)"><text x="-3" y="-4" class="inputPortLabel">9</text></g><g transform="translate(0,210)"><text x="-3" y="-4" class="inputPortLabel">10</text></g><g transform="translate(0,230)"><text x="-3" y="-4" class="inputPortLabel">11</text></g><g transform="translate(0,250)"><text x="-3" y="-4" class="inputPortLabel">12</text></g><g transform="translate(0,270)"><text x="-3" y="-4" class="inputPortLabel">13</text></g><g transform="translate(0,290)"><text x="-3" y="-4" class="inputPortLabel">14</text></g><g transform="translate(0,310)"><text x="-3" y="-4" class="inputPortLabel">15</text></g></g>
<g transform="translate(101,217.5)" id="cell_$split$,2,3,4,5,6,7,8,9,10,11,12,13,14,15,16,17,"><rect width="5" height="320" class="splitjoinBody" /><g /><g transform="translate(4,10)"><text x="5" y="-4">0</text></g><g transform="translate(4,30)"><text x="5" y="-4">1</text></g><g transform="translate(4,50)"><text x="5" y="-4">10</text></g><g transform="translate(4,70)"><text x="5" y="-4">11</text></g><g transform="translate(4,90)"><text x="5" y="-4">12</text></g><g transform="translate(4,110)"><text x="5" y="-4">13</text></g><g transform="translate(4,130)"><text x="5" y="-4">14</text></g><g transform="translate(4,150)"><text x="5" y="-4">15</text></g><g transform="translate(4,170)"><text x="5" y="-4">2</text></g><g transform="translate(4,190)"><text x="5" y="-4">3</text></g><g transform="translate(4,210)"><text x="5" y="-4">4</text></g><g transform="translate(4,230)"><text x="5" y="-4">5</text></g><g transform="translate(4,250)"><text x="5" y="-4">6</text></g><g transform="translate(4,270)"><text x="5" y="-4">7</text></g><g transform="translate(4,290)"><text x="5" y="-4">8</text></g><g transform="translate(4,310)"><text x="5" y="-4">9</text></g></g>
<g transform="translate(101,1714)" id="cell_$split$,19,20,21,22,23,24,25,26,27,28,29,30,31,32,33,34,"><rect width="5" height="320" class="splitjoinBody" /><g /><g transform="translate(4,10)"><text x="5" y="-4">0</text></g><g transform="translate(4,30)"><text x="5" y="-4">1</text></g><g transform="translate(4,50)"><text x="5" y="-4">10</text></g><g transform="translate(4,70)"><text x="5" y="-4">11</text></g><g transform="translate(4,90)"><text x="5" y="-4">12</text></g><g transform="translate(4,110)"><text x="5" y="-4">13</text></g><g transform="translate(4,130)"><text x="5" y="-4">14</text></g><g transform="translate(4,150)"><text x="5" y="-4">15</text></g><g transform="translate(4,170)"><text x="5" y="-4">2</text></g><g transform="translate(4,190)"><text x="5" y="-4">3</text></g><g transform="translate(4,210)"><text x="5" y="-4">4</text></g><g transform="translate(4,230)"><text x="5" y="-4">5</text></g><g transform="translate(4,250)"><text x="5" y="-4">6</text></g><g transform="translate(4,270)"><text x="5" y="-4">7</text></g><g transform="translate(4,290)"><text x="5" y="-4">8</text></g><g transform="translate(4,310)"><text x="5" y="-4">9</text></g></g>
<line x1="40" x2="83" y1="32" y2="32" class="net_18"><title>S</title></line>
<line x1="105.5" x2="105.5" y1="227.5" y2="52" class="net_2"><title>F_15_0[0]</title></line>
<line x1="105.5" x2="410" y1="52" y2="52" class="net_2"><title>F_15_0[0]</title></line>
<line x1="105.5" x2="105.5" y1="1724" y2="1682" class="net_19"><title>T_15_0[0]</title></line>
<line x1="105.5" x2="133" y1="1682" y2="1682" class="net_19"><title>T_15_0[0]</title></line>
<line x1="133" x2="133" y1="1682" y2="72" class="net_19"><title>T_15_0[0]</title></line>
<line x1="133" x2="410" y1="72" y2="72" class="net_19"><title>T_15_0[0]</title></line>
<line x1="108" x2="393" y1="32" y2="32" class="net_51"><title>s_s_n</title></line>
<line x1="393" x2="393" y1="32" y2="92" class="net_51"><title>s_s_n</title></line>
<circle cx="393" cy="92" r="2" style="fill:#000" class="net_51" />
<line x1="393" x2="410" y1="92" y2="92" class="net_51"><title>s_s_n</title></line>
<line x1="108" x2="393" y1="32" y2="32" class="net_51"><title>s_s_n</title></line>
<line x1="393" x2="393" y1="32" y2="200" class="net_51"><title>s_s_n</title></line>
<circle cx="393" cy="200" r="2" style="fill:#000" class="net_51" />
<line x1="393" x2="410" y1="200" y2="200" class="net_51"><title>s_s_n</title></line>
<line x1="108" x2="393" y1="32" y2="32" class="net_51"><title>s_s_n</title></line>
<line x1="393" x2="393" y1="32" y2="308" class="net_51"><title>s_s_n</title></line>
<circle cx="393" cy="308" r="2" style="fill:#000" class="net_51" />
<line x1="393" x2="410" y1="308" y2="308" class="net_51"><title>s_s_n</title></line>
<line x1="108" x2="393" y1="32" y2="32" class="net_51"><title>s_s_n</title></line>
<line x1="393" x2="393" y1="32" y2="416" class="net_51"><title>s_s_n</title></line>
<circle cx="393" cy="416" r="2" style="fill:#000" class="net_51" />
<line x1="393" x2="410" y1="416" y2="416" class="net_51"><title>s_s_n</title></line>
<line x1="108" x2="393" y1="32" y2="32" class="net_51"><title>s_s_n</title></line>
<line x1="393" x2="393" y1="32" y2="524" class="net_51"><title>s_s_n</title></line>
<circle cx="393" cy="524" r="2" style="fill:#000" class="net_51" />
<line x1="393" x2="410" y1="524" y2="524" class="net_51"><title>s_s_n</title></line>
<line x1="108" x2="393" y1="32" y2="32" class="net_51"><title>s_s_n</title></line>
<line x1="393" x2="393" y1="32" y2="632" class="net_51"><title>s_s_n</title></line>
<circle cx="393" cy="632" r="2" style="fill:#000" class="net_51" />
<line x1="393" x2="410" y1="632" y2="632" class="net_51"><title>s_s_n</title></line>
<line x1="108" x2="393" y1="32" y2="32" class="net_51"><title>s_s_n</title></line>
<line x1="393" x2="393" y1="32" y2="740" class="net_51"><title>s_s_n</title></line>
<circle cx="393" cy="740" r="2" style="fill:#000" class="net_51" />
<line x1="393" x2="410" y1="740" y2="740" class="net_51"><title>s_s_n</title></line>
<line x1="108" x2="393" y1="32" y2="32" class="net_51"><title>s_s_n</title></line>
<line x1="393" x2="393" y1="32" y2="848" class="net_51"><title>s_s_n</title></line>
<circle cx="393" cy="848" r="2" style="fill:#000" class="net_51" />
<line x1="393" x2="410" y1="848" y2="848" class="net_51"><title>s_s_n</title></line>
<line x1="108" x2="393" y1="32" y2="32" class="net_51"><title>s_s_n</title></line>
<line x1="393" x2="393" y1="32" y2="956" class="net_51"><title>s_s_n</title></line>
<circle cx="393" cy="956" r="2" style="fill:#000" class="net_51" />
<line x1="393" x2="410" y1="956" y2="956" class="net_51"><title>s_s_n</title></line>
<line x1="108" x2="393" y1="32" y2="32" class="net_51"><title>s_s_n</title></line>
<line x1="393" x2="393" y1="32" y2="1064" class="net_51"><title>s_s_n</title></line>
<circle cx="393" cy="1064" r="2" style="fill:#000" class="net_51" />
<line x1="393" x2="410" y1="1064" y2="1064" class="net_51"><title>s_s_n</title></line>
<line x1="108" x2="393" y1="32" y2="32" class="net_51"><title>s_s_n</title></line>
<line x1="393" x2="393" y1="32" y2="1172" class="net_51"><title>s_s_n</title></line>
<circle cx="393" cy="1172" r="2" style="fill:#000" class="net_51" />
<line x1="393" x2="410" y1="1172" y2="1172" class="net_51"><title>s_s_n</title></line>
<line x1="108" x2="393" y1="32" y2="32" class="net_51"><title>s_s_n</title></line>
<line x1="393" x2="393" y1="32" y2="1280" class="net_51"><title>s_s_n</title></line>
<circle cx="393" cy="1280" r="2" style="fill:#000" class="net_51" />
<line x1="393" x2="410" y1="1280" y2="1280" class="net_51"><title>s_s_n</title></line>
<line x1="108" x2="393" y1="32" y2="32" class="net_51"><title>s_s_n</title></line>
<line x1="393" x2="393" y1="32" y2="1388" class="net_51"><title>s_s_n</title></line>
<circle cx="393" cy="1388" r="2" style="fill:#000" class="net_51" />
<line x1="393" x2="410" y1="1388" y2="1388" class="net_51"><title>s_s_n</title></line>
<line x1="108" x2="393" y1="32" y2="32" class="net_51"><title>s_s_n</title></line>
<line x1="393" x2="393" y1="32" y2="1496" class="net_51"><title>s_s_n</title></line>
<circle cx="393" cy="1496" r="2" style="fill:#000" class="net_51" />
<line x1="393" x2="410" y1="1496" y2="1496" class="net_51"><title>s_s_n</title></line>
<line x1="108" x2="393" y1="32" y2="32" class="net_51"><title>s_s_n</title></line>
<line x1="393" x2="393" y1="32" y2="1604" class="net_51"><title>s_s_n</title></line>
<circle cx="393" cy="1604" r="2" style="fill:#000" class="net_51" />
<line x1="393" x2="410" y1="1604" y2="1604" class="net_51"><title>s_s_n</title></line>
<line x1="108" x2="393" y1="32" y2="32" class="net_51"><title>s_s_n</title></line>
<line x1="393" x2="393" y1="32" y2="1712" class="net_51"><title>s_s_n</title></line>
<line x1="393" x2="410" y1="1712" y2="1712" class="net_51"><title>s_s_n</title></line>
<line x1="105.5" x2="105.5" y1="247.5" y2="160" class="net_3"><title>F_15_0[1]</title></line>
<line x1="105.5" x2="410" y1="160" y2="160" class="net_3"><title>F_15_0[1]</title></line>
<line x1="105.5" x2="105.5" y1="1744" y2="1692" class="net_20"><title>T_15_0[1]</title></line>
<line x1="105.5" x2="233" y1="1692" y2="1692" class="net_20"><title>T_15_0[1]</title></line>
<line x1="233" x2="233" y1="1692" y2="180" class="net_20"><title>T_15_0[1]</title></line>
<line x1="233" x2="410" y1="180" y2="180" class="net_20"><title>T_15_0[1]</title></line>
<line x1="106" x2="410" y1="268" y2="268" class="net_12"><title>F_15_0[10]</title></line>
<line x1="106" x2="253" y1="1764.5" y2="1764.5" class="net_29"><title>T_15_0[10]</title></line>
<line x1="253" x2="253" y1="1764.5" y2="288" class="net_29"><title>T_15_0[10]</title></line>
<line x1="253" x2="410" y1="288" y2="288" class="net_29"><title>T_15_0[10]</title></line>
<line x1="106" x2="243" y1="288" y2="288" class="net_13"><title>F_15_0[11]</title></line>
<line x1="243" x2="243" y1="288" y2="376" class="net_13"><title>F_15_0[11]</title></line>
<line x1="243" x2="410" y1="376" y2="376" class="net_13"><title>F_15_0[11]</title></line>
<line x1="106" x2="263" y1="1784.5" y2="1784.5" class="net_30"><title>T_15_0[11]</title></line>
<line x1="263" x2="263" y1="1784.5" y2="396" class="net_30"><title>T_15_0[11]</title></line>
<line x1="263" x2="410" y1="396" y2="396" class="net_30"><title>T_15_0[11]</title></line>
<line x1="106" x2="223" y1="308" y2="308" class="net_14"><title>F_15_0[12]</title></line>
<line x1="223" x2="223" y1="308" y2="484" class="net_14"><title>F_15_0[12]</title></line>
<line x1="223" x2="410" y1="484" y2="484" class="net_14"><title>F_15_0[12]</title></line>
<line x1="106" x2="273" y1="1804.5" y2="1804.5" class="net_31"><title>T_15_0[12]</title></line>
<line x1="273" x2="273" y1="1804.5" y2="504" class="net_31"><title>T_15_0[12]</title></line>
<line x1="273" x2="410" y1="504" y2="504" class="net_31"><title>T_15_0[12]</title></line>
<line x1="106" x2="213" y1="328" y2="328" class="net_15"><title>F_15_0[13]</title></line>
<line x1="213" x2="213" y1="328" y2="592" class="net_15"><title>F_15_0[13]</title></line>
<line x1="213" x2="410" y1="592" y2="592" class="net_15"><title>F_15_0[13]</title></line>
<line x1="106" x2="283" y1="1824.5" y2="1824.5" class="net_32"><title>T_15_0[13]</title></line>
<line x1="283" x2="283" y1="1824.5" y2="612" class="net_32"><title>T_15_0[13]</title></line>
<line x1="283" x2="410" y1="612" y2="612" class="net_32"><title>T_15_0[13]</title></line>
<line x1="106" x2="203" y1="348" y2="348" class="net_16"><title>F_15_0[14]</title></line>
<line x1="203" x2="203" y1="348" y2="700" class="net_16"><title>F_15_0[14]</title></line>
<line x1="203" x2="410" y1="700" y2="700" class="net_16"><title>F_15_0[14]</title></line>
<line x1="106" x2="293" y1="1844.5" y2="1844.5" class="net_33"><title>T_15_0[14]</title></line>
<line x1="293" x2="293" y1="1844.5" y2="720" class="net_33"><title>T_15_0[14]</title></line>
<line x1="293" x2="410" y1="720" y2="720" class="net_33"><title>T_15_0[14]</title></line>
<line x1="106" x2="193" y1="368" y2="368" class="net_17"><title>F_15_0[15]</title></line>
<line x1="193" x2="193" y1="368" y2="808" class="net_17"><title>F_15_0[15]</title></line>
<line x1="193" x2="410" y1="808" y2="808" class="net_17"><title>F_15_0[15]</title></line>
<line x1="106" x2="303" y1="1864.5" y2="1864.5" class="net_34"><title>T_15_0[15]</title></line>
<line x1="303" x2="303" y1="1864.5" y2="828" class="net_34"><title>T_15_0[15]</title></line>
<line x1="303" x2="410" y1="828" y2="828" class="net_34"><title>T_15_0[15]</title></line>
<line x1="106" x2="183" y1="388" y2="388" class="net_4"><title>F_15_0[2]</title></line>
<line x1="183" x2="183" y1="388" y2="916" class="net_4"><title>F_15_0[2]</title></line>
<line x1="183" x2="410" y1="916" y2="916" class="net_4"><title>F_15_0[2]</title></line>
<line x1="106" x2="313" y1="1884.5" y2="1884.5" class="net_21"><title>T_15_0[2]</title></line>
<line x1="313" x2="313" y1="1884.5" y2="936" class="net_21"><title>T_15_0[2]</title></line>
<line x1="313" x2="410" y1="936" y2="936" class="net_21"><title>T_15_0[2]</title></line>
<line x1="106" x2="173" y1="408" y2="408" class="net_5"><title>F_15_0[3]</title></line>
<line x1="173" x2="173" y1="408" y2="1024" class="net_5"><title>F_15_0[3]</title></line>
<line x1="173" x2="410" y1="1024" y2="1024" class="net_5"><title>F_15_0[3]</title></line>
<line x1="106" x2="323" y1="1904.5" y2="1904.5" class="net_22"><title>T_15_0[3]</title></line>
<line x1="323" x2="323" y1="1904.5" y2="1044" class="net_22"><title>T_15_0[3]</title></line>
<line x1="323" x2="410" y1="1044" y2="1044" class="net_22"><title>T_15_0[3]</title></line>
<line x1="106" x2="163" y1="428" y2="428" class="net_6"><title>F_15_0[4]</title></line>
<line x1="163" x2="163" y1="428" y2="1132" class="net_6"><title>F_15_0[4]</title></line>
<line x1="163" x2="410" y1="1132" y2="1132" class="net_6"><title>F_15_0[4]</title></line>
<line x1="106" x2="333" y1="1924.5" y2="1924.5" class="net_23"><title>T_15_0[4]</title></line>
<line x1="333" x2="333" y1="1924.5" y2="1152" class="net_23"><title>T_15_0[4]</title></line>
<line x1="333" x2="410" y1="1152" y2="1152" class="net_23"><title>T_15_0[4]</title></line>
<line x1="106" x2="153" y1="448" y2="448" class="net_7"><title>F_15_0[5]</title></line>
<line x1="153" x2="153" y1="448" y2="1240" class="net_7"><title>F_15_0[5]</title></line>
<line x1="153" x2="410" y1="1240" y2="1240" class="net_7"><title>F_15_0[5]</title></line>
<line x1="106" x2="343" y1="1944.5" y2="1944.5" class="net_24"><title>T_15_0[5]</title></line>
<line x1="343" x2="343" y1="1944.5" y2="1260" class="net_24"><title>T_15_0[5]</title></line>
<line x1="343" x2="410" y1="1260" y2="1260" class="net_24"><title>T_15_0[5]</title></line>
<line x1="106" x2="143" y1="468" y2="468" class="net_8"><title>F_15_0[6]</title></line>
<line x1="143" x2="143" y1="468" y2="1348" class="net_8"><title>F_15_0[6]</title></line>
<line x1="143" x2="410" y1="1348" y2="1348" class="net_8"><title>F_15_0[6]</title></line>
<line x1="106" x2="353" y1="1964.5" y2="1964.5" class="net_25"><title>T_15_0[6]</title></line>
<line x1="353" x2="353" y1="1964.5" y2="1368" class="net_25"><title>T_15_0[6]</title></line>
<line x1="353" x2="410" y1="1368" y2="1368" class="net_25"><title>T_15_0[6]</title></line>
<line x1="106" x2="123" y1="488" y2="488" class="net_9"><title>F_15_0[7]</title></line>
<line x1="123" x2="123" y1="488" y2="1456" class="net_9"><title>F_15_0[7]</title></line>
<line x1="123" x2="410" y1="1456" y2="1456" class="net_9"><title>F_15_0[7]</title></line>
<line x1="106" x2="363" y1="1984.5" y2="1984.5" class="net_26"><title>T_15_0[7]</title></line>
<line x1="363" x2="363" y1="1984.5" y2="1476" class="net_26"><title>T_15_0[7]</title></line>
<line x1="363" x2="410" y1="1476" y2="1476" class="net_26"><title>T_15_0[7]</title></line>
<line x1="105.5" x2="105.5" y1="508.5" y2="1564" class="net_10"><title>F_15_0[8]</title></line>
<line x1="105.5" x2="410" y1="1564" y2="1564" class="net_10"><title>F_15_0[8]</title></line>
<line x1="105.5" x2="105.5" y1="2005" y2="2044" class="net_27"><title>T_15_0[8]</title></line>
<line x1="105.5" x2="373" y1="2044" y2="2044" class="net_27"><title>T_15_0[8]</title></line>
<line x1="373" x2="373" y1="2044" y2="1584" class="net_27"><title>T_15_0[8]</title></line>
<line x1="373" x2="410" y1="1584" y2="1584" class="net_27"><title>T_15_0[8]</title></line>
<line x1="105.5" x2="105.5" y1="528.5" y2="1672" class="net_11"><title>F_15_0[9]</title></line>
<line x1="105.5" x2="410" y1="1672" y2="1672" class="net_11"><title>F_15_0[9]</title></line>
<line x1="105.5" x2="105.5" y1="2025" y2="2054" class="net_28"><title>T_15_0[9]</title></line>
<line x1="105.5" x2="383" y1="2054" y2="2054" class="net_28"><title>T_15_0[9]</title></line>
<line x1="383" x2="383" y1="2054" y2="1692" class="net_28"><title>T_15_0[9]</title></line>
<line x1="383" x2="410" y1="1692" y2="1692" class="net_28"><title>T_15_0[9]</title></line>
<line x1="597" x2="632" y1="974" y2="974" class="net_35,36,37,38,39,40,41,42,43,44,45,46,47,48,49,50"><title>O_15_0</title></line>
<line x1="441" x2="591.5" y1="52" y2="52" class="net_35"><title>O_15_0[0]</title></line>
<line x1="591.5" x2="591.5" y1="52" y2="963.5" class="net_35"><title>O_15_0[0]</title></line>
<line x1="441" x2="591.5" y1="160" y2="160" class="net_36"><title>O_15_0[1]</title></line>
<line x1="591.5" x2="591.5" y1="160" y2="983.5" class="net_36"><title>O_15_0[1]</title></line>
<line x1="441" x2="564" y1="916" y2="916" class="net_37"><title>O_15_0[2]</title></line>
<line x1="564" x2="564" y1="916" y2="1004" class="net_37"><title>O_15_0[2]</title></line>
<line x1="564" x2="591" y1="1004" y2="1004" class="net_37"><title>O_15_0[2]</title></line>
<line x1="441" x2="591" y1="1024" y2="1024" class="net_38"><title>O_15_0[3]</title></line>
<line x1="441" x2="484" y1="1132" y2="1132" class="net_39"><title>O_15_0[4]</title></line>
<line x1="484" x2="484" y1="1132" y2="1044" class="net_39"><title>O_15_0[4]</title></line>
<line x1="484" x2="591" y1="1044" y2="1044" class="net_39"><title>O_15_0[4]</title></line>
<line x1="441" x2="494" y1="1240" y2="1240" class="net_40"><title>O_15_0[5]</title></line>
<line x1="494" x2="494" y1="1240" y2="1064" class="net_40"><title>O_15_0[5]</title></line>
<line x1="494" x2="591" y1="1064" y2="1064" class="net_40"><title>O_15_0[5]</title></line>
<line x1="441" x2="504" y1="1348" y2="1348" class="net_41"><title>O_15_0[6]</title></line>
<line x1="504" x2="504" y1="1348" y2="1084" class="net_41"><title>O_15_0[6]</title></line>
<line x1="504" x2="591" y1="1084" y2="1084" class="net_41"><title>O_15_0[6]</title></line>
<line x1="441" x2="524" y1="1456" y2="1456" class="net_42"><title>O_15_0[7]</title></line>
<line x1="524" x2="524" y1="1456" y2="1104" class="net_42"><title>O_15_0[7]</title></line>
<line x1="524" x2="591" y1="1104" y2="1104" class="net_42"><title>O_15_0[7]</title></line>
<line x1="441" x2="544" y1="1564" y2="1564" class="net_43"><title>O_15_0[8]</title></line>
<line x1="544" x2="544" y1="1564" y2="1124" class="net_43"><title>O_15_0[8]</title></line>
<line x1="544" x2="591" y1="1124" y2="1124" class="net_43"><title>O_15_0[8]</title></line>
<line x1="441" x2="564" y1="1672" y2="1672" class="net_44"><title>O_15_0[9]</title></line>
<line x1="564" x2="564" y1="1672" y2="1144" class="net_44"><title>O_15_0[9]</title></line>
<line x1="564" x2="591" y1="1144" y2="1144" class="net_44"><title>O_15_0[9]</title></line>
<line x1="441" x2="574" y1="268" y2="268" class="net_45"><title>O_15_0[10]</title></line>
<line x1="574" x2="574" y1="268" y2="1164" class="net_45"><title>O_15_0[10]</title></line>
<line x1="574" x2="591" y1="1164" y2="1164" class="net_45"><title>O_15_0[10]</title></line>
<line x1="441" x2="554" y1="376" y2="376" class="net_46"><title>O_15_0[11]</title></line>
<line x1="554" x2="554" y1="376" y2="1184" class="net_46"><title>O_15_0[11]</title></line>
<line x1="554" x2="591" y1="1184" y2="1184" class="net_46"><title>O_15_0[11]</title></line>
<line x1="441" x2="534" y1="484" y2="484" class="net_47"><title>O_15_0[12]</title></line>
<line x1="534" x2="534" y1="484" y2="1204" class="net_47"><title>O_15_0[12]</title></line>
<line x1="534" x2="591" y1="1204" y2="1204" class="net_47"><title>O_15_0[12]</title></line>
<line x1="441" x2="514" y1="592" y2="592" class="net_48"><title>O_15_0[13]</title></line>
<line x1="514" x2="514" y1="592" y2="1224" class="net_48"><title>O_15_0[13]</title></line>
<line x1="514" x2="591" y1="1224" y2="1224" class="net_48"><title>O_15_0[13]</title></line>
<line x1="441" x2="464" y1="700" y2="700" class="net_49"><title>O_15_0[14]</title></line>
<line x1="464" x2="464" y1="700" y2="1293.5" class="net_49"><title>O_15_0[14]</title></line>
<line x1="464" x2="591.5" y1="1293.5" y2="1293.5" class="net_49"><title>O_15_0[14]</title></line>
<line x1="591.5" x2="591.5" y1="1293.5" y2="1244.5" class="net_49"><title>O_15_0[14]</title></line>
<line x1="441" x2="474" y1="808" y2="808" class="net_50"><title>O_15_0[15]</title></line>
<line x1="474" x2="474" y1="808" y2="1283.5" class="net_50"><title>O_15_0[15]</title></line>
<line x1="474" x2="591.5" y1="1283.5" y2="1283.5" class="net_50"><title>O_15_0[15]</title></line>
<line x1="591.5" x2="591.5" y1="1283.5" y2="1264.5" class="net_50"><title>O_15_0[15]</title></line>
<line x1="40" x2="101.5" y1="170" y2="170" class="net_2,3,4,5,6,7,8,9,10,11,12,13,14,15,16,17"><title>F_15_0</title></line>
<line x1="101.5" x2="101.5" y1="170" y2="237.5" class="net_2,3,4,5,6,7,8,9,10,11,12,13,14,15,16,17"><title>F_15_0</title></line>
<line x1="40" x2="101.5" y1="1702" y2="1702" class="net_19,20,21,22,23,24,25,26,27,28,29,30,31,32,33,34"><title>T_15_0</title></line>
<line x1="101.5" x2="101.5" y1="1702" y2="1734" class="net_19,20,21,22,23,24,25,26,27,28,29,30,31,32,33,34"><title>T_15_0</title></line>
<text x="108.5" y="1561.0" class="netlabel">F_15_0[8]</text>
<text x="108.5" y="1669.0" class="netlabel">F_15_0[9]</text>
<text x="109.0" y="265.0" class="netlabel">F_15_0[10]</text>
<text x="246.0" y="373.0" class="netlabel">F_15_0[11]</text>
<text x="226.0" y="481.0" class="netlabel">F_15_0[12]</text>
<text x="216.0" y="589.0" class="netlabel">F_15_0[13]</text>
<text x="206.0" y="697.0" class="netlabel">F_15_0[14]</text>
<text x="196.0" y="805.0" class="netlabel">F_15_0[15]</text>
<text x="43.0" y="29.0" class="netlabel">S</text>
<text x="136.0" y="69.0" class="netlabel">T_15_0[0]</text>
<text x="43.0" y="1699.0" class="netlabel">T_15_0</text>
<text x="108.5" y="49.0" class="netlabel">F_15_0[0]</text>
<text x="43.0" y="167.0" class="netlabel">F_15_0</text>
<text x="236.0" y="177.0" class="netlabel">T_15_0[1]</text>
<text x="109.0" y="1881.5" class="netlabel">T_15_0[2]</text>
<text x="109.0" y="1901.5" class="netlabel">T_15_0[3]</text>
<text x="109.0" y="1921.5" class="netlabel">T_15_0[4]</text>
<text x="109.0" y="1941.5" class="netlabel">T_15_0[5]</text>
<text x="109.0" y="1961.5" class="netlabel">T_15_0[6]</text>
<text x="109.0" y="1981.5" class="netlabel">T_15_0[7]</text>
<text x="108.5" y="2041.0" class="netlabel">T_15_0[8]</text>
<text x="108.5" y="2051.0" class="netlabel">T_15_0[9]</text>
<text x="256.0" y="285.0" class="netlabel">T_15_0[10]</text>
<text x="108.5" y="157.0" class="netlabel">F_15_0[1]</text>
<text x="109.0" y="1781.5" class="netlabel">T_15_0[11]</text>
<text x="109.0" y="1801.5" class="netlabel">T_15_0[12]</text>
<text x="109.0" y="1821.5" class="netlabel">T_15_0[13]</text>
<text x="109.0" y="1841.5" class="netlabel">T_15_0[14]</text>
<text x="109.0" y="1861.5" class="netlabel">T_15_0[15]</text>
<text x="444.0" y="49.0" class="netlabel">O_15_0[0]</text>
<text x="600.0" y="971.0" class="netlabel">O_15_0</text>
<text x="444.0" y="157.0" class="netlabel">O_15_0[1]</text>
<text x="444.0" y="913.0" class="netlabel">O_15_0[2]</text>
<text x="444.0" y="1021.0" class="netlabel">O_15_0[3]</text>
<text x="487.0" y="1041.0" class="netlabel">O_15_0[4]</text>
<text x="186.0" y="913.0" class="netlabel">F_15_0[2]</text>
<text x="497.0" y="1061.0" class="netlabel">O_15_0[5]</text>
<text x="507.0" y="1081.0" class="netlabel">O_15_0[6]</text>
<text x="444.0" y="1453.0" class="netlabel">O_15_0[7]</text>
<text x="444.0" y="1561.0" class="netlabel">O_15_0[8]</text>
<text x="444.0" y="1669.0" class="netlabel">O_15_0[9]</text>
<text x="444.0" y="265.0" class="netlabel">O_15_0[10]</text>
<text x="444.0" y="373.0" class="netlabel">O_15_0[11]</text>
<text x="444.0" y="481.0" class="netlabel">O_15_0[12]</text>
<text x="517.0" y="1221.0" class="netlabel">O_15_0[13]</text>
<text x="467.0" y="1290.5" class="netlabel">O_15_0[14]</text>
<text x="176.0" y="1021.0" class="netlabel">F_15_0[3]</text>
<text x="477.0" y="1280.5" class="netlabel">O_15_0[15]</text>
<text x="111.0" y="29.0" class="netlabel">s_s_n</text>
<text x="166.0" y="1129.0" class="netlabel">F_15_0[4]</text>
<text x="156.0" y="1237.0" class="netlabel">F_15_0[5]</text>
<text x="146.0" y="1345.0" class="netlabel">F_15_0[6]</text>
<text x="126.0" y="1453.0" class="netlabel">F_15_0[7]</text>
</svg>
