<svg xmlns="http://www.w3.org/2000/svg" width="740.0" height="590.0" viewBox="-80.0 -80.0 740.0 590.0"><style>svg {
    stroke:#000;
    fill:none;
  }
  text {
    fill:#000;
    stroke:none;
    font-size:10px;
    font-weight: bold;
    font-family: "Courier New", monospace;
  }
  .nodelabel {
    text-anchor: middle;
  }
  .inputPortLabel {
    text-anchor: end;
  }
  .splitjoinBody {
    fill:#000;
  }
.netlabel { font-family: sans-serif; font-size: 8px; fill: #1565c0; }
a:hover rect { fill: #e3f2fd; }
a { cursor: pointer; }
</style>
<rect x="-80.0" y="-80.0" width="740.0" height="590.0" fill="#ffffff" /><g transform="translate(148,27)" id="cell_$and$CGA_IDBCTL_SEL6.v:87$10306"><path d="M0,0 L0,25 L15,25 A15 12.5 0 0 0 15,0 Z" class="cell_$and$CGA_IDBCTL_SEL6.v:87$10306" /><g /><g /><g /></g>
<g transform="translate(148,92)" id="cell_$and$CGA_IDBCTL_SEL6.v:88$10307"><path d="M0,0 L0,25 L15,25 A15 12.5 0 0 0 15,0 Z" class="cell_$and$CGA_IDBCTL_SEL6.v:88$10307" /><g /><g /><g /></g>
<g transform="translate(213,167)" id="cell_$and$CGA_IDBCTL_SEL6.v:89$10308"><path d="M0,0 L0,25 L15,25 A15 12.5 0 0 0 15,0 Z" class="cell_$and$CGA_IDBCTL_SEL6.v:89$10308" /><g /><g /><g /></g>
<g transform="translate(278,242)" id="cell_$and$CGA_IDBCTL_SEL6.v:90$10309"><path d="M0,0 L0,25 L15,25 A15 12.5 0 0 0 15,0 Z" class="cell_$and$CGA_IDBCTL_SEL6.v:90$10309" /><g /><g /><g /></g>
<g transform="translate(343,317)" id="cell_$and$CGA_IDBCTL_SEL6.v:91$10310"><path d="M0,0 L0,25 L15,25 A15 12.5 0 0 0 15,0 Z" class="cell_$and$CGA_IDBCTL_SEL6.v:91$10310" /><g /><g /><g /></g>
<g transform="translate(408,392)" id="cell_$and$CGA_IDBCTL_SEL6.v:92$10311"><path d="M0,0 L0,25 L15,25 A15 12.5 0 0 0 15,0 Z" class="cell_$and$CGA_IDBCTL_SEL6.v:92$10311" /><g /><g /><g /></g>
<g transform="translate(213,34.5)" id="cell_$or$CGA_IDBCTL_SEL6.v:94$10312"><path d="M0,25 L0,25 L15,25 A15 12.5 0 0 0 15,0 L0,0" class="cell_$or$CGA_IDBCTL_SEL6.v:94$10312" /><path d="M0,0 A30 25 0 0 1 0,25" class="cell_$or$CGA_IDBCTL_SEL6.v:94$10312" /><g /><g /><g /></g>
<g transform="translate(278,42)" id="cell_$or$CGA_IDBCTL_SEL6.v:94$10313"><path d="M0,25 L0,25 L15,25 A15 12.5 0 0 0 15,0 L0,0" class="cell_$or$CGA_IDBCTL_SEL6.v:94$10313" /><path d="M0,0 A30 25 0 0 1 0,25" class="cell_$or$CGA_IDBCTL_SEL6.v:94$10313" /><g /><g /><g /></g>
<g transform="translate(343,49.5)" id="cell_$or$CGA_IDBCTL_SEL6.v:94$10314"><path d="M0,25 L0,25 L15,25 A15 12.5 0 0 0 15,0 L0,0" class="cell_$or$CGA_IDBCTL_SEL6.v:94$10314" /><path d="M0,0 A30 25 0 0 1 0,25" class="cell_$or$CGA_IDBCTL_SEL6.v:94$10314" /><g /><g /><g /></g>
<g transform="translate(408,57)" id="cell_$or$CGA_IDBCTL_SEL6.v:94$10315"><path d="M0,25 L0,25 L15,25 A15 12.5 0 0 0 15,0 L0,0" class="cell_$or$CGA_IDBCTL_SEL6.v:94$10315" /><path d="M0,0 A30 25 0 0 1 0,25" class="cell_$or$CGA_IDBCTL_SEL6.v:94$10315" /><g /><g /><g /></g>
<g transform="translate(473,64.5)" id="cell_$or$CGA_IDBCTL_SEL6.v:94$10316"><path d="M0,25 L0,25 L15,25 A15 12.5 0 0 0 15,0 L0,0" class="cell_$or$CGA_IDBCTL_SEL6.v:94$10316" /><path d="M0,0 A30 25 0 0 1 0,25" class="cell_$or$CGA_IDBCTL_SEL6.v:94$10316" /><g /><g /><g /></g>
<g transform="translate(83,22)" id="cell_D"><text x="15" y="-4" class="nodelabel cell_D">D</text><path d="M0,0 L0,20 L15,20 L30,10 L15,0 Z" class="cell_D" /><g /></g>
<g transform="translate(12,152)" id="cell_E_PINS"><text x="15" y="-4" class="nodelabel cell_E_PINS">E_PINS</text><path d="M0,0 L0,20 L15,20 L30,10 L15,0 Z" class="cell_E_PINS" /><g /></g>
<g transform="translate(83,87)" id="cell_M"><text x="15" y="-4" class="nodelabel cell_M">M</text><path d="M0,0 L0,20 L15,20 L30,10 L15,0 Z" class="cell_M" /><g /></g>
<g transform="translate(278,312)" id="cell_PCR"><text x="15" y="-4" class="nodelabel cell_PCR">PCR</text><path d="M0,0 L0,20 L15,20 L30,10 L15,0 Z" class="cell_PCR" /><g /></g>
<g transform="translate(343,387)" id="cell_PGS"><text x="15" y="-4" class="nodelabel cell_PGS">PGS</text><path d="M0,0 L0,20 L15,20 L30,10 L15,0 Z" class="cell_PGS" /><g /></g>
<g transform="translate(213,237)" id="cell_S"><text x="15" y="-4" class="nodelabel cell_S">S</text><path d="M0,0 L0,20 L15,20 L30,10 L15,0 Z" class="cell_S" /><g /></g>
<g transform="translate(148,162)" id="cell_V"><text x="15" y="-4" class="nodelabel cell_V">V</text><path d="M0,0 L0,20 L15,20 L30,10 L15,0 Z" class="cell_V" /><g /></g>
<g transform="translate(538,67)" id="cell_D0"><text x="15" y="-4" class="nodelabel cell_D0">D0</text><path d="M30,0 L30,20 L15,20 L0,10 L15,0 Z" class="cell_D0" /><g /></g>
<g transform="translate(98.8,141.5)" id="cell_$split$,3,4,5,6,7,8,"><rect width="5" height="120" class="splitjoinBody" /><g /><g transform="translate(4,10)"><text x="5" y="-4">5</text></g><g transform="translate(4,30)"><text x="5" y="-4">4</text></g><g transform="translate(4,50)"><text x="5" y="-4">3</text></g><g transform="translate(4,70)"><text x="5" y="-4">2</text></g><g transform="translate(4,90)"><text x="5" y="-4">1</text></g><g transform="translate(4,110)"><text x="5" y="-4">0</text></g></g>
<line x1="111" x2="148" y1="32" y2="32" class="net_2"><title>D</title></line>
<line x1="103.3" x2="103.3" y1="151.5" y2="117" class="net_8"><title>s_ed</title></line>
<line x1="103.3" x2="123" y1="117" y2="117" class="net_8"><title>s_ed</title></line>
<line x1="123" x2="123" y1="117" y2="47" class="net_8"><title>s_ed</title></line>
<line x1="123" x2="148" y1="47" y2="47" class="net_8"><title>s_ed</title></line>
<line x1="111" x2="148" y1="97" y2="97" class="net_9"><title>M</title></line>
<line x1="103.8" x2="133" y1="172" y2="172" class="net_7"><title>s_em</title></line>
<line x1="133" x2="133" y1="172" y2="112" class="net_7"><title>s_em</title></line>
<line x1="133" x2="148" y1="112" y2="112" class="net_7"><title>s_em</title></line>
<line x1="176" x2="213" y1="172" y2="172" class="net_13"><title>V</title></line>
<line x1="103.8" x2="188" y1="192" y2="192" class="net_6"><title>s_ev</title></line>
<line x1="188" x2="188" y1="192" y2="187" class="net_6"><title>s_ev</title></line>
<line x1="188" x2="213" y1="187" y2="187" class="net_6"><title>s_ev</title></line>
<line x1="241" x2="278" y1="247" y2="247" class="net_12"><title>S</title></line>
<line x1="103.8" x2="133" y1="212" y2="212" class="net_5"><title>s_es</title></line>
<line x1="133" x2="133" y1="212" y2="267" class="net_5"><title>s_es</title></line>
<line x1="133" x2="253" y1="267" y2="267" class="net_5"><title>s_es</title></line>
<line x1="253" x2="253" y1="267" y2="262" class="net_5"><title>s_es</title></line>
<line x1="253" x2="278" y1="262" y2="262" class="net_5"><title>s_es</title></line>
<line x1="306" x2="343" y1="322" y2="322" class="net_10"><title>PCR</title></line>
<line x1="103.8" x2="123" y1="232" y2="232" class="net_4"><title>s_epcr</title></line>
<line x1="123" x2="123" y1="232" y2="342" class="net_4"><title>s_epcr</title></line>
<line x1="123" x2="318" y1="342" y2="342" class="net_4"><title>s_epcr</title></line>
<line x1="318" x2="318" y1="342" y2="337" class="net_4"><title>s_epcr</title></line>
<line x1="318" x2="343" y1="337" y2="337" class="net_4"><title>s_epcr</title></line>
<line x1="371" x2="408" y1="397" y2="397" class="net_11"><title>PGS</title></line>
<line x1="103.3" x2="103.3" y1="252.5" y2="417" class="net_3"><title>s_epgs</title></line>
<line x1="103.3" x2="383" y1="417" y2="417" class="net_3"><title>s_epgs</title></line>
<line x1="383" x2="383" y1="417" y2="412" class="net_3"><title>s_epgs</title></line>
<line x1="383" x2="408" y1="412" y2="412" class="net_3"><title>s_epgs</title></line>
<line x1="178" x2="216" y1="39.5" y2="39.5" class="net_15"><title>s_out_d</title></line>
<line x1="178" x2="188" y1="104.5" y2="104.5" class="net_16"><title>s_out_m</title></line>
<line x1="188" x2="188" y1="104.5" y2="54.5" class="net_16"><title>s_out_m</title></line>
<line x1="188" x2="216" y1="54.5" y2="54.5" class="net_16"><title>s_out_m</title></line>
<line x1="243" x2="281" y1="47" y2="47" class="net_21" />
<line x1="243" x2="253" y1="179.5" y2="179.5" class="net_17"><title>s_out_v</title></line>
<line x1="253" x2="253" y1="179.5" y2="62" class="net_17"><title>s_out_v</title></line>
<line x1="253" x2="281" y1="62" y2="62" class="net_17"><title>s_out_v</title></line>
<line x1="308" x2="346" y1="54.5" y2="54.5" class="net_22" />
<line x1="308" x2="318" y1="254.5" y2="254.5" class="net_18"><title>s_out_s</title></line>
<line x1="318" x2="318" y1="254.5" y2="69.5" class="net_18"><title>s_out_s</title></line>
<line x1="318" x2="346" y1="69.5" y2="69.5" class="net_18"><title>s_out_s</title></line>
<line x1="373" x2="411" y1="62" y2="62" class="net_23" />
<line x1="373" x2="383" y1="329.5" y2="329.5" class="net_19"><title>s_out_pcr</title></line>
<line x1="383" x2="383" y1="329.5" y2="77" class="net_19"><title>s_out_pcr</title></line>
<line x1="383" x2="411" y1="77" y2="77" class="net_19"><title>s_out_pcr</title></line>
<line x1="438" x2="476" y1="69.5" y2="69.5" class="net_24" />
<line x1="438" x2="448" y1="404.5" y2="404.5" class="net_20"><title>s_out_pgs</title></line>
<line x1="448" x2="448" y1="404.5" y2="84.5" class="net_20"><title>s_out_pgs</title></line>
<line x1="448" x2="476" y1="84.5" y2="84.5" class="net_20"><title>s_out_pgs</title></line>
<line x1="503" x2="538" y1="77" y2="77" class="net_14"><title>D0</title></line>
<line x1="40" x2="98.8" y1="162" y2="162" class="net_3,4,5,6,7,8"><title>E_PINS</title></line>
<text x="309.0" y="319.0" class="netlabel">PCR</text>
<text x="374.0" y="394.0" class="netlabel">PGS</text>
<text x="244.0" y="244.0" class="netlabel">S</text>
<text x="179.0" y="169.0" class="netlabel">V</text>
<text x="506.0" y="74.0" class="netlabel">D0</text>
<text x="181.0" y="36.5" class="netlabel">s_out_d</text>
<text x="191.0" y="51.5" class="netlabel">s_out_m</text>
<text x="256.0" y="59.0" class="netlabel">s_out_v</text>
<text x="321.0" y="66.5" class="netlabel">s_out_s</text>
<text x="386.0" y="74.0" class="netlabel">s_out_pcr</text>
<text x="114.0" y="29.0" class="netlabel">D</text>
<text x="451.0" y="81.5" class="netlabel">s_out_pgs</text>
<text x="106.3" y="414.0" class="netlabel">s_epgs</text>
<text x="43.0" y="159.0" class="netlabel">E_PINS</text>
<text x="126.0" y="339.0" class="netlabel">s_epcr</text>
<text x="136.0" y="264.0" class="netlabel">s_es</text>
<text x="106.8" y="189.0" class="netlabel">s_ev</text>
<text x="106.8" y="169.0" class="netlabel">s_em</text>
<text x="126.0" y="44.0" class="netlabel">s_ed</text>
<text x="114.0" y="94.0" class="netlabel">M</text>
</svg>
